<?xml version="1.0" encoding="iso-8859-1"?>
<!-- Uploaded to: SVG Repo, www.svgrepo.com, Generator: SVG Repo Mixer Tools -->
<!DOCTYPE svg PUBLIC "-//W3C//DTD SVG 1.1//EN" "http://www.w3.org/Graphics/SVG/1.1/DTD/svg11.dtd">
<svg fill="#000000" height="800px" width="800px" version="1.1" id="Capa_1" xmlns="http://www.w3.org/2000/svg" xmlns:xlink="http://www.w3.org/1999/xlink" 
	 viewBox="0 0 372.844 372.844" xml:space="preserve">
<g>
	<path d="M113.094,94.363c-0.212,5.459-8.47,9.848-18.646,9.848c-10.175,0-18.435-4.389-18.647-9.848
		c-9.823,6.2-16.353,17.141-16.353,29.615c0,19.331,15.668,35.001,35,35.001c19.332,0,35-15.67,35-35.001
		C129.447,111.504,122.917,100.563,113.094,94.363z"/>
	<path d="M326.447,168.28h-99.516c-25.623,0-46.396,20.772-46.396,46.397v1.044h-11.088v-31.718
		c12.19-15.909,19.447-35.788,19.447-57.332c0-33.729-17.775-63.379-44.447-80.09v-4.958c0-9.07-7.351-16.421-16.421-16.421H60.868
		c-9.07,0-16.421,7.351-16.421,16.421v4.958C17.775,63.292,0,92.942,0,126.671c0,21.545,7.257,41.423,19.447,57.332v120.005
		c0,24.099,19.535,43.634,43.634,43.634h62.732c24.099,0,43.634-19.536,43.634-43.634v-28.886h11.088v1.043
		c0,25.625,20.773,46.398,46.396,46.398h99.516c25.625,0,46.397-20.773,46.397-46.398v-61.487
		C372.844,189.053,352.072,168.28,326.447,168.28z M73.088,305.199H57.756c-7.548,0-13.667-6.119-13.667-13.667
		c0-7.548,6.119-13.666,13.667-13.666h15.332c7.548,0,13.667,6.119,13.667,13.666C86.755,299.081,80.636,305.199,73.088,305.199z
		 M94.447,181.117C64.425,181.117,40,156.693,40,126.671c0-30.022,24.425-54.447,54.447-54.447
		c30.022,0,54.447,24.425,54.447,54.447C148.895,156.693,124.47,181.117,94.447,181.117z M340.063,272.532
		c0,11.046-8.954,20.001-20,20.001s-20-8.955-20-20.001v-54.589c0-11.046,8.954-20.001,20-20.001s20,8.955,20,20.001V272.532z"/>
</g>
</svg>